<svg width="20" height="20" viewBox="0 0 20 20" fill="none" xmlns="http://www.w3.org/2000/svg">
<path d="M16.0882 3.1376C15.6727 1.50992 10.1202 1.26064 8.96422 1.05534C7.15881 0.732737 5.34695 0.454127 3.52856 0.226838C2.72328 0.124191 1.41794 -0.227742 0.645135 0.226838C0.625652 0.212172 0.599673 0.190177 0.58019 0.175511C0.417838 0.050869 0.255483 0.175511 0.190541 0.344144C0.0671508 0.380805 -0.030262 0.505447 0.00870323 0.666751C1.18415 4.99992 2.1323 9.79495 4.54815 13.4976C4.72349 13.7615 4.99624 13.8129 5.22356 13.5929C5.89895 12.9477 6.54834 12.2806 7.19127 11.5986C7.23025 11.7306 7.32768 11.8479 7.47056 11.8627C8.67196 11.9726 9.99028 12.1706 11.1398 12.6545C11.1657 12.6985 11.1852 12.7425 11.2112 12.7938C11.432 13.2044 11.958 13.0138 11.984 12.5592C12.0359 11.4667 11.984 10.3816 11.9255 9.2891C11.8736 8.32858 11.9515 7.27281 11.7957 6.3344C11.7957 6.3197 11.7827 6.30505 11.7827 6.2904C12.2503 6.16575 12.7438 5.75519 13.1075 5.52053C13.9323 4.99262 14.7181 4.39143 15.5558 3.8782C15.6597 3.81954 15.7116 3.73156 15.7441 3.63624C15.7506 3.63624 15.7571 3.63624 15.7571 3.63624C15.9779 3.62151 16.1532 3.39422 16.0882 3.1376ZM6.93153 4.56732C7.71082 5.03657 10.0422 7.05286 10.9839 6.45894C11.0683 6.40764 11.1073 6.31234 11.1203 6.20969C11.1269 6.21699 11.1398 6.21699 11.1462 6.22434C11.1268 6.25364 11.1073 6.29034 11.0943 6.32699C10.854 7.11151 11.0228 8.10862 11.0683 8.91514C11.1074 9.60435 11.1462 10.2936 11.1592 10.9827C10.6462 10.1103 10.1202 9.2451 9.55515 8.40923C9.56166 8.31393 9.54217 8.20392 9.46427 8.10862C8.15892 6.56159 6.46398 5.24917 4.97676 3.92945C4.43775 3.45288 3.89872 2.96897 3.35971 2.49239C4.55464 3.16693 5.74305 3.8488 6.93153 4.56732ZM4.99624 12.5225C2.98304 9.17904 2.3596 5.16122 0.904902 1.52458C1.21662 1.81053 1.61277 2.09647 1.77513 2.23578C2.65184 3.02029 3.50258 3.8268 4.39228 4.60398C5.80803 5.84308 7.16532 7.50006 8.73688 8.51188C7.50948 9.87555 6.2886 11.2394 4.99624 12.5225ZM7.61338 11.144C8.21087 10.4988 8.80186 9.84631 9.38632 9.18645C9.73053 9.95625 10.1072 10.6968 10.4903 11.4373C9.55515 11.1514 8.49011 10.99 7.61338 11.144ZM12.7958 4.516C12.419 4.77262 12.0359 5.02921 11.6658 5.29317C11.5359 5.38847 11.3995 5.46912 11.2761 5.56448C11.1722 5.64513 10.9384 5.85773 11.1528 5.81373C11.0943 5.82843 11.0619 5.87238 11.0424 5.92373C11.0229 5.90173 11.0099 5.87973 10.9904 5.86508C9.57463 4.94856 8.05508 4.16407 6.60681 3.2989C5.7171 2.77101 4.8274 2.11847 3.90522 1.56124C5.54823 1.74454 7.24974 1.78853 8.73042 2.04515C10.2695 2.31643 11.8021 2.61704 13.3218 2.96897C13.679 3.04962 14.0881 3.21825 14.4973 3.36489C13.9192 3.73882 13.3607 4.13474 12.7958 4.516Z" fill="#DAB2FF"/>
<path d="M11.5831 19.4999C11.5095 19.1792 11.2666 19 11.0752 18.8019C10.7882 18.5095 10.5011 18.2077 10.2214 17.9059C9.99322 17.6607 9.76502 17.4249 9.52212 17.1985C9.39704 17.0759 9.23511 17.0382 9.12468 16.9439C9.00692 16.8496 8.8376 17.0477 8.92595 17.1985C8.99221 17.3117 9.0143 17.4815 9.10259 17.6041C9.30869 17.9154 9.53689 18.1984 9.76502 18.4813C10.03 18.8019 10.295 19.132 10.5674 19.4434C10.7661 19.6792 10.9869 19.9998 11.2813 19.9998C11.4874 20.0092 11.6419 19.745 11.5831 19.4999Z" fill="#DAB2FF"/>
<path d="M13.9825 18.8302C13.7102 18.4434 13.2759 18.2266 12.9447 17.9153C12.5104 17.5003 12.1424 16.9815 11.7155 16.5571C11.4947 16.3402 11.237 16.6703 11.4137 16.9439C11.7302 17.4627 12.1055 17.9247 12.4883 18.3587C12.827 18.7454 13.2611 19.3113 13.7249 19.3962C13.9825 19.4338 14.1739 19.0943 13.9825 18.8302Z" fill="#DAB2FF"/>
<path d="M16.1171 17.6417C16.0362 17.4247 15.9331 17.3776 15.7712 17.2833C15.5946 17.1795 15.4326 17.0286 15.2707 16.8871C14.9026 16.5666 14.5788 16.1798 14.2328 15.8213C14.012 15.5855 13.7175 15.944 13.9089 16.2363C14.2108 16.6891 14.5641 17.0853 14.9248 17.453C15.2117 17.7548 15.5651 18.2264 15.9478 18.1415C16.1393 18.1039 16.1834 17.821 16.1171 17.6417Z" fill="#DAB2FF"/>
<path d="M17.6921 15.0291C17.508 14.916 17.118 14.5291 16.8824 14.3122C16.4996 13.9444 16.139 13.5388 15.7783 13.1332C15.5501 12.8786 15.2337 13.2653 15.4398 13.5671C15.793 14.0764 16.1904 14.5481 16.5953 15.0007C16.8897 15.3308 17.2135 15.7648 17.6332 15.6327C17.8393 15.5667 17.8982 15.1518 17.6921 15.0291Z" fill="#DAB2FF"/>
<path d="M18.3326 11.8222C18.1118 11.4638 17.6922 11.2658 17.3904 11.0017C16.993 10.6527 16.6469 10.2 16.3157 9.74712C16.1538 9.53023 15.8373 9.82272 15.9772 10.0772C16.2569 10.596 16.5881 11.03 16.9414 11.4544C17.2358 11.8034 17.6333 12.3505 18.0307 12.4542C18.3547 12.5391 18.524 12.124 18.3326 11.8222Z" fill="#DAB2FF"/>
<path d="M18.5386 8.93613C17.9792 8.60603 17.4492 8.20041 16.9929 7.64396C16.8456 7.46476 16.6101 7.69111 16.7058 7.92691C16.9192 8.41737 17.2358 8.81353 17.5744 9.15302C17.8394 9.42659 18.1043 9.70954 18.465 9.56803C18.6784 9.49258 18.7594 9.06818 18.5386 8.93613Z" fill="#DAB2FF"/>
<path d="M19.9814 7.1063C19.8343 6.64408 19.2233 6.41773 18.8627 6.16308C18.6198 5.99334 18.0752 5.43681 17.7733 5.61602C17.7659 5.61602 17.7659 5.61602 17.7587 5.62547C17.7512 5.63486 17.7365 5.63486 17.7292 5.64432H17.7366C17.6704 5.69147 17.6188 5.78583 17.6483 5.88013C17.5968 5.71977 17.6557 6.04987 17.6851 6.10647C17.7293 6.20084 17.8029 6.25737 17.8691 6.32344C18.0605 6.5121 18.2666 6.68184 18.4653 6.86104C18.7818 7.14399 19.3044 7.80427 19.7166 7.7099C19.9006 7.66275 20.0551 7.33265 19.9814 7.1063Z" fill="#DAB2FF"/>
</svg>
