<svg width="136" height="28" viewBox="0 0 136 28" fill="none" xmlns="http://www.w3.org/2000/svg">
<path d="M28.575 6.125C28.8917 6.125 29.175 6.20833 29.425 6.375C29.6917 6.54167 29.85 6.83333 29.9 7.25C30.1 8.56667 30.225 9.88333 30.275 11.2C30.3417 12.5 30.375 13.975 30.375 15.625C30.375 16.325 30.3167 17.6 30.2 19.45C30.9333 19.5167 31.5 19.55 31.9 19.55C32.1833 19.55 32.825 19.5083 33.825 19.425C34.4083 19.3417 34.9167 19.3 35.35 19.3C35.75 19.3 36.1167 19.3417 36.45 19.425C36.7833 19.4917 37.125 19.6083 37.475 19.775C37.825 19.975 38 20.2833 38 20.7C38 21.0333 37.8917 21.3333 37.675 21.6C37.475 21.8667 37.2333 22 36.95 22C36.75 22 36.4333 21.9667 36 21.9C35.2167 21.7833 34.4667 21.725 33.75 21.725C33.5167 21.725 33.25 21.7417 32.95 21.775C32.6667 21.7917 32.4583 21.8 32.325 21.8C31.925 21.85 31.525 21.875 31.125 21.875C30.3083 21.875 29.575 21.8333 28.925 21.75C28.5917 21.7167 28.2583 21.5917 27.925 21.375C27.5917 21.1417 27.425 20.8083 27.425 20.375C27.425 20.125 27.4583 19.4833 27.525 18.45C27.6417 16.7333 27.7 15.425 27.7 14.525C27.7 13.825 27.6667 13.0917 27.6 12.325C27.5333 11.5583 27.4917 11.075 27.475 10.875C27.325 9.45833 27.25 8.29167 27.25 7.375C27.25 6.94167 27.35 6.625 27.55 6.425C27.7667 6.225 28.1083 6.125 28.575 6.125ZM42.4826 27.1C41.8493 27.1 41.316 26.9917 40.8826 26.775C40.466 26.575 40.1493 26.325 39.9326 26.025C39.7326 25.7417 39.6326 25.4917 39.6326 25.275C39.6326 24.9917 39.7326 24.7667 39.9326 24.6C40.1326 24.45 40.3743 24.375 40.6576 24.375C40.8243 24.375 40.9826 24.425 41.1326 24.525C41.2826 24.625 41.366 24.6833 41.3826 24.7C41.4993 24.7833 41.616 24.85 41.7326 24.9C41.8493 24.9667 41.9743 25 42.1076 25C42.4743 25 42.7743 24.7583 43.0076 24.275C43.241 23.7917 43.4743 23.0083 43.7076 21.925C42.9576 20.825 42.3326 19.725 41.8326 18.625L41.2576 17.3C41.1743 17.1 40.941 16.5833 40.5576 15.75C40.191 14.9 39.8243 14.15 39.4576 13.5C39.2243 13.0333 39.1076 12.7167 39.1076 12.55C39.1076 12.1333 39.2493 11.825 39.5326 11.625C39.8326 11.425 40.1743 11.325 40.5576 11.325C40.8243 11.325 41.0243 11.3833 41.1576 11.5C41.3076 11.6 41.4743 11.7917 41.6576 12.075C42.141 12.875 42.666 14.075 43.2326 15.675C43.566 16.5917 43.8326 17.2917 44.0326 17.775C44.2326 18.2417 44.4743 18.7167 44.7576 19.2C45.041 18.55 45.3993 17.4417 45.8326 15.875C46.0993 14.975 46.316 14.2583 46.4826 13.725C46.666 13.175 46.866 12.675 47.0826 12.225C47.2326 11.925 47.416 11.6833 47.6326 11.5C47.866 11.3167 48.1243 11.225 48.4076 11.225C48.691 11.225 48.991 11.3333 49.3076 11.55C49.641 11.75 49.8076 11.9917 49.8076 12.275C49.8076 12.4417 49.7493 12.6417 49.6326 12.875C48.9826 14.375 48.4076 15.7917 47.9076 17.125C47.4243 18.4417 46.9576 19.8917 46.5076 21.475C46.241 22.3583 45.9576 23.2 45.6576 24C45.3743 24.8 45.1743 25.2917 45.0576 25.475C44.7243 25.9417 44.3493 26.325 43.9326 26.625C43.516 26.9417 43.0326 27.1 42.4826 27.1ZM52.0264 13.2C51.893 13.1 51.7847 13 51.7014 12.9C51.618 12.7833 51.5764 12.5833 51.5764 12.3C51.5764 11.9833 51.6847 11.7417 51.9014 11.575C52.1347 11.3917 52.4014 11.3 52.7014 11.3C53.2847 11.3 53.7847 11.45 54.2014 11.75C54.6347 12.05 54.9514 12.4667 55.1514 13C55.518 12.3167 55.9847 11.85 56.5514 11.6C57.118 11.3333 57.9014 11.2 58.9014 11.2C59.3014 11.2 59.7097 11.325 60.1264 11.575C60.5597 11.8083 60.9514 12.1 61.3014 12.45C61.5847 12.8167 61.8264 13.275 62.0264 13.825C62.2264 14.3583 62.3264 14.8417 62.3264 15.275C62.3264 15.525 62.3097 15.9333 62.2764 16.5C62.243 17.1 62.2264 17.575 62.2264 17.925C62.2264 19.0917 62.4514 19.8083 62.9014 20.075C62.968 20.1083 63.093 20.15 63.2764 20.2C63.4597 20.25 63.593 20.3 63.6764 20.35C63.7764 20.4 63.8264 20.475 63.8264 20.575C63.843 20.975 63.693 21.3083 63.3764 21.575C63.0764 21.825 62.7097 21.95 62.2764 21.95C61.6264 21.95 61.118 21.775 60.7514 21.425C60.3847 21.075 60.1264 20.5417 59.9764 19.825C59.893 19.5583 59.8514 19.1667 59.8514 18.65C59.8514 18.3667 59.868 17.9083 59.9014 17.275C59.9514 16.775 59.9764 16.2417 59.9764 15.675C59.9764 15.0917 59.8097 14.5833 59.4764 14.15C59.143 13.7 58.6847 13.475 58.1014 13.475C57.7514 13.475 57.3847 13.5833 57.0014 13.8C56.618 14 56.3514 14.25 56.2014 14.55C55.9514 15.0667 55.7847 15.5917 55.7014 16.125C55.5014 17.1583 55.4014 18.15 55.4014 19.1C55.4014 19.3333 55.418 19.7833 55.4514 20.45C55.4514 20.5 55.4514 20.625 55.4514 20.825C55.4514 21.0083 55.4264 21.1833 55.3764 21.35C55.343 21.5167 55.2764 21.6667 55.1764 21.8C55.1097 21.8667 54.9847 21.9333 54.8014 22C54.618 22.0667 54.4597 22.1 54.3264 22.1C54.093 22.1 53.8014 22 53.4514 21.8C53.1014 21.6 52.893 21.375 52.8264 21.125L52.8014 20.775C52.8014 20.6417 52.818 20.4417 52.8514 20.175C53.0514 19.0083 53.1514 17.9917 53.1514 17.125C53.1514 16.7417 53.143 16.45 53.1264 16.25L53.1014 15.1C53.1014 14.75 53.0014 14.4167 52.8014 14.1C52.6014 13.7667 52.343 13.4667 52.0264 13.2ZM74.7564 10.975C75.0898 10.975 75.3481 11.0583 75.5314 11.225C75.7314 11.375 75.8314 11.5667 75.8314 11.8C75.8314 11.9667 75.7981 12.1417 75.7314 12.325C75.6814 12.4917 75.6231 12.6667 75.5564 12.85C75.1731 13.75 74.3648 15.0083 73.1314 16.625C74.3981 18.2583 75.4231 19.3083 76.2064 19.775C76.2731 19.8083 76.3981 19.8667 76.5814 19.95C76.7648 20.0333 76.9064 20.1333 77.0064 20.25C77.1231 20.3667 77.1814 20.5 77.1814 20.65C77.1814 21.0167 77.0398 21.3167 76.7564 21.55C76.4898 21.7667 76.1648 21.875 75.7814 21.875C75.1314 21.875 74.4231 21.5167 73.6564 20.8C72.8898 20.0667 72.2398 19.3 71.7064 18.5C71.3231 19.0833 70.8814 19.6667 70.3814 20.25C69.8981 20.8167 69.4481 21.3 69.0314 21.7C68.8648 21.8833 68.6648 22.025 68.4314 22.125C68.2148 22.225 67.9981 22.275 67.7814 22.275C67.4814 22.275 67.2148 22.2083 66.9814 22.075C66.7481 21.9417 66.6314 21.7083 66.6314 21.375C66.6314 21.2917 66.6898 21.1583 66.8064 20.975C66.9231 20.775 66.9898 20.6583 67.0064 20.625C67.2064 20.275 67.4731 19.9167 67.8064 19.55C68.1398 19.1667 68.3481 18.925 68.4314 18.825C68.6314 18.575 68.8481 18.3333 69.0814 18.1C69.2148 17.95 69.4148 17.7167 69.6814 17.4C69.9481 17.0833 70.1314 16.8333 70.2314 16.65L69.3564 15.45C68.9398 14.9667 68.5814 14.5833 68.2814 14.3C67.9814 14 67.7398 13.85 67.5564 13.85C67.2898 13.85 67.0398 13.925 66.8064 14.075C66.6064 14.2083 66.4064 14.275 66.2064 14.275C65.9898 14.275 65.8231 14.225 65.7064 14.125C65.5898 14.0083 65.5314 13.8833 65.5314 13.75C65.5314 13.1833 65.7564 12.7 66.2064 12.3C66.6564 11.8833 67.2231 11.675 67.9064 11.675C68.5564 11.675 69.1314 11.9 69.6314 12.35C70.1481 12.7833 70.6564 13.3667 71.1564 14.1C71.2231 14.1667 71.2981 14.275 71.3814 14.425C71.4648 14.575 71.5481 14.7 71.6314 14.8C71.8148 14.5333 72.1481 14.0167 72.6314 13.25C73.1481 12.3333 73.4564 11.8083 73.5564 11.675C73.9064 11.2083 74.3064 10.975 74.7564 10.975ZM80.1344 20.825C80.1344 20.275 80.1677 19.6667 80.2344 19C80.301 18.2333 80.3344 17.2667 80.3344 16.1C80.3344 13.9667 80.2427 11.9083 80.0594 9.925C79.9594 8.69167 79.9094 7.81667 79.9094 7.3C79.9094 6.95 80.0844 6.65833 80.4344 6.425C80.7844 6.175 81.1427 6.05 81.5094 6.05C81.7427 6.05 82.026 6.06667 82.3594 6.1C82.6927 6.13333 82.9344 6.15 83.0844 6.15C86.8344 6.15 89.5927 7.15833 91.3594 9.175C92.476 10.475 93.0344 12.2 93.0344 14.35C93.0344 15.25 92.8677 16.1583 92.5344 17.075C92.2177 17.975 91.7594 18.7083 91.1594 19.275C90.5094 19.9083 89.8927 20.4167 89.3094 20.8C88.7427 21.1667 87.9677 21.475 86.9844 21.725C86.0177 21.975 84.776 22.1 83.2594 22.1C82.2927 22.1 81.526 21.9917 80.9594 21.775C80.4094 21.5583 80.1344 21.2417 80.1344 20.825ZM84.2094 19.825C85.326 19.825 86.351 19.625 87.2844 19.225C88.2177 18.8083 88.9677 18.1917 89.5344 17.375C90.101 16.5417 90.3844 15.525 90.3844 14.325C90.3844 13.1417 90.2177 12.1583 89.8844 11.375C89.551 10.575 88.976 9.925 88.1594 9.425C87.5427 9.04167 86.7844 8.76667 85.8844 8.6C84.9844 8.41667 83.901 8.325 82.6344 8.325C82.6344 8.49167 82.651 8.875 82.6844 9.475C82.7177 10.0417 82.7344 10.5167 82.7344 10.9L82.7594 11.45C82.8594 13.1833 82.9094 14.5583 82.9094 15.575C82.9094 17.175 82.8177 18.5583 82.6344 19.725C83.0344 19.7917 83.5594 19.825 84.2094 19.825ZM99.7047 21C99.7047 21.2833 99.5964 21.5333 99.3797 21.75C99.163 21.9667 98.8964 22.075 98.5797 22.075C98.0797 22.075 97.713 21.9833 97.4797 21.8C97.2464 21.6 97.1297 21.2417 97.1297 20.725C97.1297 20.1083 97.113 19.3 97.0797 18.3C97.0464 17.4667 97.0297 16.7667 97.0297 16.2C97.0297 15.9333 97.0464 15.5833 97.0797 15.15C97.113 14.75 97.1297 14.45 97.1297 14.25C97.0797 13.9333 96.9547 13.675 96.7547 13.475C96.5547 13.2583 96.2964 13.15 95.9797 13.15C95.8297 13.15 95.7047 13.0833 95.6047 12.95C95.5047 12.8 95.4547 12.65 95.4547 12.5C95.4547 12.1167 95.6047 11.825 95.9047 11.625C96.2214 11.425 96.5964 11.325 97.0297 11.325C97.9297 11.325 98.5547 11.8583 98.9047 12.925C99.338 12.425 99.8297 12.025 100.38 11.725C100.946 11.4083 101.488 11.25 102.005 11.25C102.621 11.25 103.18 11.4167 103.68 11.75C104.196 12.0833 104.455 12.5333 104.455 13.1C104.455 13.4167 104.313 13.7417 104.03 14.075C103.763 14.4083 103.488 14.575 103.205 14.575C103.055 14.575 102.921 14.5417 102.805 14.475C102.705 14.3917 102.58 14.275 102.43 14.125C102.263 13.9583 102.121 13.8417 102.005 13.775C101.888 13.6917 101.755 13.65 101.605 13.65C101.338 13.65 101.088 13.6917 100.855 13.775C100.621 13.8583 100.463 13.9583 100.38 14.075C100.113 14.4917 99.913 14.8667 99.7797 15.2C99.663 15.5333 99.6047 15.8917 99.6047 16.275C99.6047 16.5583 99.5964 16.7833 99.5797 16.95L99.5547 18.375C99.5547 18.5917 99.563 18.8333 99.5797 19.1C99.5964 19.3667 99.613 19.5667 99.6297 19.7C99.6797 20.15 99.7047 20.5833 99.7047 21ZM118.066 20.8C118.066 21.1667 117.866 21.475 117.466 21.725C117.083 21.975 116.725 22.1 116.391 22.1C115.758 22.1 115.25 22.025 114.866 21.875C114.5 21.7083 114.158 21.4083 113.841 20.975C113.408 21.3583 112.816 21.65 112.066 21.85C111.316 22.0333 110.625 22.125 109.991 22.125C108.958 22.125 108.108 21.85 107.441 21.3C106.775 20.7333 106.441 19.9083 106.441 18.825C106.441 18.3583 106.566 17.9333 106.816 17.55C107.066 17.15 107.408 16.8 107.841 16.5C108.325 16.1833 108.875 15.9417 109.491 15.775C110.108 15.5917 110.75 15.5 111.416 15.5C111.766 15.5 112.183 15.5667 112.666 15.7C113.15 15.8333 113.525 15.975 113.791 16.125V15.725C113.791 14.825 113.575 14.2083 113.141 13.875C112.708 13.525 112.008 13.35 111.041 13.35C110.758 13.35 110.475 13.4083 110.191 13.525C109.925 13.6417 109.616 13.8 109.266 14C108.8 14.25 108.358 14.375 107.941 14.375C107.791 14.375 107.65 14.275 107.516 14.075C107.383 13.8583 107.316 13.6667 107.316 13.5C107.316 13.0167 107.541 12.6 107.991 12.25C108.458 11.9 109.008 11.6417 109.641 11.475C110.275 11.2917 110.841 11.2 111.341 11.2C111.841 11.2 112.416 11.3 113.066 11.5C113.716 11.6833 114.25 11.9417 114.666 12.275C115.166 12.7083 115.55 13.2167 115.816 13.8C116.1 14.3667 116.241 14.9917 116.241 15.675C116.241 15.8917 116.225 16.2167 116.191 16.65C116.158 17.1167 116.141 17.5167 116.141 17.85C116.141 18 116.125 18.225 116.091 18.525C116.058 18.8917 116.041 19.1833 116.041 19.4C116.041 19.6 116.116 19.775 116.266 19.925C116.416 20.0583 116.591 20.125 116.791 20.125L117.491 20.1C117.675 20.1 117.816 20.1667 117.916 20.3C118.016 20.4333 118.066 20.6 118.066 20.8ZM110.016 20.15C110.733 20.15 111.333 20.075 111.816 19.925C112.3 19.775 112.883 19.5 113.566 19.1C113.633 18.8167 113.675 18.4417 113.691 17.975C112.775 17.5417 112.016 17.325 111.416 17.325C110.733 17.325 110.125 17.45 109.591 17.7C109.058 17.95 108.791 18.3917 108.791 19.025C108.791 19.3417 108.925 19.6083 109.191 19.825C109.458 20.0417 109.733 20.15 110.016 20.15ZM132.028 16.05C132.128 15.6833 132.237 15.1833 132.353 14.55C132.52 13.8 132.653 13.2333 132.753 12.85C132.853 12.4667 132.987 12.1417 133.153 11.875C133.337 11.575 133.495 11.375 133.628 11.275C133.778 11.175 133.937 11.125 134.103 11.125C134.97 11.125 135.403 11.4583 135.403 12.125C135.403 12.4583 135.27 13.0833 135.003 14C134.12 16.6667 133.487 18.7333 133.103 20.2C132.937 20.8167 132.687 21.2917 132.353 21.625C132.02 21.9417 131.57 22.1 131.003 22.1C130.72 22.1 130.428 21.9667 130.128 21.7C129.845 21.4167 129.612 21.075 129.428 20.675L129.153 20C128.687 18.8167 128.337 17.9083 128.103 17.275C127.887 16.625 127.745 16.0417 127.678 15.525L127.453 16.325C127.053 17.7583 126.637 19.0917 126.203 20.325C125.987 20.9583 125.72 21.4167 125.403 21.7C125.087 21.9667 124.678 22.1 124.178 22.1C123.878 22.1 123.612 22.0333 123.378 21.9C123.162 21.7667 122.953 21.5417 122.753 21.225C122.487 20.7917 122.228 20.2083 121.978 19.475C121.745 18.7417 121.403 17.6 120.953 16.05C120.737 15.3833 120.537 14.6833 120.353 13.95C120.17 13.2 120.078 12.675 120.078 12.375C120.078 12.025 120.17 11.75 120.353 11.55C120.537 11.35 120.803 11.25 121.153 11.25C121.603 11.25 121.92 11.3417 122.103 11.525C122.287 11.6917 122.453 11.95 122.603 12.3C122.687 12.9 122.87 13.75 123.153 14.85L123.703 17.2C123.737 17.3833 123.837 17.7667 124.003 18.35L124.203 19.075C124.57 18.2917 124.878 17.5417 125.128 16.825C125.378 16.1083 125.653 15.225 125.953 14.175C125.97 14.1083 126.137 13.5333 126.453 12.45C126.67 12.1 126.862 11.8417 127.028 11.675C127.195 11.4917 127.362 11.4 127.528 11.4C127.862 11.4 128.145 11.5083 128.378 11.725C128.628 11.925 128.812 12.175 128.928 12.475C129.128 13.125 129.303 13.7167 129.453 14.25C129.52 14.4667 129.67 14.9917 129.903 15.825C130.153 16.6417 130.378 17.3333 130.578 17.9C130.778 18.4667 130.945 18.8667 131.078 19.1L132.028 16.05Z" fill="white"/>
<path d="M16.5882 6.6376C16.1727 5.00992 10.6202 4.76064 9.46422 4.55534C7.65881 4.23274 5.84695 3.95413 4.02856 3.72684C3.22328 3.62419 1.91794 3.27226 1.14513 3.72684C1.12565 3.71217 1.09967 3.69018 1.08019 3.67551C0.917838 3.55087 0.755483 3.67551 0.690541 3.84414C0.567151 3.88081 0.469738 4.00545 0.508703 4.16675C1.68415 8.49992 2.6323 13.295 5.04815 16.9976C5.22349 17.2615 5.49624 17.3129 5.72356 17.0929C6.39895 16.4477 7.04834 15.7806 7.69127 15.0986C7.73025 15.2306 7.82768 15.3479 7.97056 15.3627C9.17196 15.4726 10.4903 15.6706 11.6398 16.1545C11.6657 16.1985 11.6852 16.2425 11.7112 16.2938C11.932 16.7044 12.458 16.5138 12.484 16.0592C12.5359 14.9667 12.484 13.8816 12.4255 12.7891C12.3736 11.8286 12.4515 10.7728 12.2957 9.8344C12.2957 9.8197 12.2827 9.80505 12.2827 9.7904C12.7503 9.66575 13.2438 9.25519 13.6075 9.02053C14.4323 8.49262 15.2181 7.89143 16.0558 7.3782C16.1597 7.31954 16.2116 7.23156 16.2441 7.13624C16.2506 7.13624 16.2571 7.13624 16.2571 7.13624C16.4779 7.12151 16.6532 6.89422 16.5882 6.6376ZM7.43153 8.06732C8.21082 8.53657 10.5422 10.5529 11.4839 9.95894C11.5683 9.90764 11.6073 9.81234 11.6203 9.70969C11.6269 9.71699 11.6398 9.71699 11.6462 9.72434C11.6268 9.75364 11.6073 9.79034 11.5943 9.82699C11.354 10.6115 11.5228 11.6086 11.5683 12.4151C11.6074 13.1044 11.6462 13.7936 11.6592 14.4827C11.1462 13.6103 10.6202 12.7451 10.0551 11.9092C10.0617 11.8139 10.0422 11.7039 9.96427 11.6086C8.65892 10.0616 6.96398 8.74917 5.47676 7.42945C4.93775 6.95288 4.39872 6.46897 3.85971 5.99239C5.05464 6.66693 6.24305 7.3488 7.43153 8.06732ZM5.49624 16.0225C3.48304 12.679 2.8596 8.66122 1.4049 5.02458C1.71662 5.31053 2.11277 5.59647 2.27513 5.73578C3.15184 6.52029 4.00258 7.3268 4.89228 8.10398C6.30803 9.34308 7.66532 11.0001 9.23688 12.0119C8.00948 13.3755 6.7886 14.7394 5.49624 16.0225ZM8.11338 14.644C8.71087 13.9988 9.30186 13.3463 9.88632 12.6864C10.2305 13.4563 10.6072 14.1968 10.9903 14.9373C10.0551 14.6514 8.99011 14.49 8.11338 14.644ZM13.2958 8.016C12.919 8.27262 12.5359 8.52921 12.1658 8.79317C12.0359 8.88847 11.8995 8.96912 11.7761 9.06448C11.6722 9.14513 11.4384 9.35773 11.6528 9.31373C11.5943 9.32843 11.5619 9.37238 11.5424 9.42373C11.5229 9.40173 11.5099 9.37973 11.4904 9.36508C10.0746 8.44856 8.55508 7.66407 7.10681 6.7989C6.2171 6.27101 5.3274 5.61847 4.40522 5.06124C6.04823 5.24454 7.74974 5.28853 9.23042 5.54515C10.7695 5.81643 12.3021 6.11704 13.8218 6.46897C14.179 6.54962 14.5881 6.71825 14.9973 6.86489C14.4192 7.23882 13.8607 7.63474 13.2958 8.016Z" fill="#DAB2FF"/>
<path d="M12.0831 22.9999C12.0095 22.6792 11.7666 22.5 11.5752 22.3019C11.2882 22.0095 11.0011 21.7077 10.7214 21.4059C10.4932 21.1607 10.265 20.9249 10.0221 20.6985C9.89704 20.5759 9.73511 20.5382 9.62468 20.4439C9.50692 20.3496 9.3376 20.5477 9.42595 20.6985C9.49221 20.8117 9.5143 20.9815 9.60259 21.1041C9.80869 21.4154 10.0369 21.6984 10.265 21.9813C10.53 22.3019 10.795 22.632 11.0674 22.9434C11.2661 23.1792 11.4869 23.4998 11.7813 23.4998C11.9874 23.5092 12.1419 23.245 12.0831 22.9999Z" fill="#DAB2FF"/>
<path d="M14.4825 22.3302C14.2102 21.9434 13.7759 21.7266 13.4447 21.4153C13.0104 21.0003 12.6424 20.4815 12.2155 20.0571C11.9947 19.8402 11.737 20.1703 11.9137 20.4439C12.2302 20.9627 12.6055 21.4247 12.9883 21.8587C13.327 22.2454 13.7611 22.8113 14.2249 22.8962C14.4825 22.9338 14.6739 22.5943 14.4825 22.3302Z" fill="#DAB2FF"/>
<path d="M16.6171 21.1417C16.5362 20.9247 16.4331 20.8776 16.2712 20.7833C16.0946 20.6795 15.9326 20.5286 15.7707 20.3871C15.4026 20.0666 15.0788 19.6798 14.7328 19.3213C14.512 19.0855 14.2175 19.444 14.4089 19.7363C14.7108 20.1891 15.0641 20.5853 15.4248 20.953C15.7117 21.2548 16.0651 21.7264 16.4478 21.6415C16.6393 21.6039 16.6834 21.321 16.6171 21.1417Z" fill="#DAB2FF"/>
<path d="M18.1921 18.5291C18.008 18.416 17.618 18.0291 17.3824 17.8122C16.9996 17.4444 16.639 17.0388 16.2783 16.6332C16.0501 16.3786 15.7337 16.7653 15.9398 17.0671C16.293 17.5764 16.6904 18.0481 17.0953 18.5007C17.3897 18.8308 17.7135 19.2648 18.1332 19.1327C18.3393 19.0667 18.3982 18.6518 18.1921 18.5291Z" fill="#DAB2FF"/>
<path d="M18.8326 15.3222C18.6118 14.9638 18.1922 14.7658 17.8904 14.5017C17.493 14.1527 17.1469 13.7 16.8157 13.2471C16.6538 13.0302 16.3373 13.3227 16.4772 13.5772C16.7569 14.096 17.0881 14.53 17.4414 14.9544C17.7358 15.3034 18.1333 15.8505 18.5307 15.9542C18.8547 16.0391 19.024 15.624 18.8326 15.3222Z" fill="#DAB2FF"/>
<path d="M19.0386 12.4361C18.4792 12.106 17.9492 11.7004 17.4929 11.144C17.3456 10.9648 17.1101 11.1911 17.2058 11.4269C17.4192 11.9174 17.7358 12.3135 18.0744 12.653C18.3394 12.9266 18.6043 13.2095 18.965 13.068C19.1784 12.9926 19.2594 12.5682 19.0386 12.4361Z" fill="#DAB2FF"/>
<path d="M20.4814 10.6063C20.3343 10.1441 19.7233 9.91773 19.3627 9.66308C19.1198 9.49334 18.5752 8.93681 18.2733 9.11602C18.2659 9.11602 18.2659 9.11602 18.2587 9.12547C18.2512 9.13486 18.2365 9.13486 18.2292 9.14432H18.2366C18.1704 9.19147 18.1188 9.28583 18.1483 9.38013C18.0968 9.21977 18.1557 9.54987 18.1851 9.60647C18.2293 9.70084 18.3029 9.75737 18.3691 9.82344C18.5605 10.0121 18.7666 10.1818 18.9653 10.361C19.2818 10.644 19.8044 11.3043 20.2166 11.2099C20.4006 11.1628 20.5551 10.8327 20.4814 10.6063Z" fill="#DAB2FF"/>
</svg>
